<?xml version="1.0" encoding="UTF-8"?>
<mxfile host="app.diagrams.net" modified="2024-03-21T15:00:00.000Z" agent="Mozilla/5.0" version="21.1.9" etag="your-etag" type="device">
  <diagram name="Class Diagram" id="class-diagram">
    <mxGraphModel dx="1222" dy="798" grid="1" gridSize="10" guides="1" tooltips="1" connect="1" arrows="1" fold="1" page="1" pageScale="1" pageWidth="827" pageHeight="1169" math="0" shadow="0">
      <root>
        <mxCell id="0" />
        <mxCell id="1" parent="0" />
        
        <!-- Classes -->
        <mxCell id="class1" value="User&#xa;----------------&#xa;id: int&#xa;email: string&#xa;full_name: string&#xa;hashed_password: string&#xa;is_active: boolean&#xa;is_superuser: boolean&#xa;----------------&#xa;authenticate()&#xa;is_active()&#xa;is_superuser()" style="swimlane;whiteSpace=wrap;html=1;" vertex="1" parent="1">
          <mxGeometry x="40" y="40" width="200" height="160" as="geometry" />
        </mxCell>
        
        <mxCell id="class2" value="Product&#xa;----------------&#xa;id: int&#xa;name: string&#xa;description: string&#xa;sku: string&#xa;barcode: string&#xa;price: float&#xa;cost: float&#xa;stock: int&#xa;min_quantity: int&#xa;----------------&#xa;update_stock()&#xa;check_low_stock()" style="swimlane;whiteSpace=wrap;html=1;" vertex="1" parent="1">
          <mxGeometry x="40" y="240" width="200" height="200" as="geometry" />
        </mxCell>
        
        <mxCell id="class3" value="Category&#xa;----------------&#xa;id: int&#xa;name: string&#xa;description: string&#xa;----------------&#xa;get_products()" style="swimlane;whiteSpace=wrap;html=1;" vertex="1" parent="1">
          <mxGeometry x="300" y="40" width="200" height="120" as="geometry" />
        </mxCell>
        
        <mxCell id="class4" value="Supplier&#xa;----------------&#xa;id: int&#xa;name: string&#xa;contact_name: string&#xa;email: string&#xa;phone: string&#xa;address: string&#xa;----------------&#xa;get_products()" style="swimlane;whiteSpace=wrap;html=1;" vertex="1" parent="1">
          <mxGeometry x="300" y="200" width="200" height="160" as="geometry" />
        </mxCell>
        
        <mxCell id="class5" value="Sale&#xa;----------------&#xa;id: int&#xa;product_id: int&#xa;customer_id: int&#xa;quantity: int&#xa;unit_price: float&#xa;total_amount: float&#xa;notes: string&#xa;----------------&#xa;calculate_total()&#xa;process_sale()" style="swimlane;whiteSpace=wrap;html=1;" vertex="1" parent="1">
          <mxGeometry x="560" y="40" width="200" height="160" as="geometry" />
        </mxCell>
        
        <mxCell id="class6" value="Customer&#xa;----------------&#xa;id: int&#xa;full_name: string&#xa;email: string&#xa;phone: string&#xa;address: string&#xa;----------------&#xa;get_sales_history()" style="swimlane;whiteSpace=wrap;html=1;" vertex="1" parent="1">
          <mxGeometry x="560" y="240" width="200" height="160" as="geometry" />
        </mxCell>
        
        <mxCell id="class7" value="InventoryTransaction&#xa;----------------&#xa;id: int&#xa;product_id: int&#xa;quantity: int&#xa;transaction_type: string&#xa;notes: string&#xa;----------------&#xa;record_transaction()" style="swimlane;whiteSpace=wrap;html=1;" vertex="1" parent="1">
          <mxGeometry x="560" y="440" width="200" height="160" as="geometry" />
        </mxCell>

        <!-- Relationships -->
        <!-- Product - Category (Composition) -->
        <mxCell id="rel1" value="1" style="endArrow=none;html=1;rounded=0;exitX=0;exitY=0.5;entryX=1;entryY=0.5;endFill=1;startFill=1;" edge="1" parent="1" source="class2" target="class3">
          <mxGeometry relative="1" as="geometry">
            <Array as="points">
              <mxPoint x="240" y="340" />
              <mxPoint x="300" y="340" />
            </Array>
          </mxGeometry>
        </mxCell>
        
        <!-- Product - Supplier (Composition) -->
        <mxCell id="rel2" value="1" style="endArrow=none;html=1;rounded=0;exitX=0;exitY=0.5;entryX=1;entryY=0.5;endFill=1;startFill=1;" edge="1" parent="1" source="class2" target="class4">
          <mxGeometry relative="1" as="geometry">
            <Array as="points">
              <mxPoint x="240" y="440" />
              <mxPoint x="300" y="440" />
            </Array>
          </mxGeometry>
        </mxCell>
        
        <!-- Sale - Product (Aggregation) -->
        <mxCell id="rel3" value="1" style="endArrow=none;html=1;rounded=0;exitX=0;exitY=0.5;entryX=1;entryY=0.5;endFill=0;startFill=1;" edge="1" parent="1" source="class5" target="class2">
          <mxGeometry relative="1" as="geometry">
            <Array as="points">
              <mxPoint x="560" y="120" />
              <mxPoint x="240" y="120" />
            </Array>
          </mxGeometry>
        </mxCell>
        
        <!-- Sale - Customer (Aggregation) -->
        <mxCell id="rel4" value="1" style="endArrow=none;html=1;rounded=0;exitX=0;exitY=0.5;entryX=1;entryY=0.5;endFill=0;startFill=1;" edge="1" parent="1" source="class5" target="class6">
          <mxGeometry relative="1" as="geometry">
            <Array as="points">
              <mxPoint x="560" y="320" />
              <mxPoint x="560" y="240" />
            </Array>
          </mxGeometry>
        </mxCell>
        
        <!-- InventoryTransaction - Product (Composition) -->
        <mxCell id="rel5" value="1" style="endArrow=none;html=1;rounded=0;exitX=0;exitY=0.5;entryX=1;entryY=0.5;endFill=1;startFill=1;" edge="1" parent="1" source="class7" target="class2">
          <mxGeometry relative="1" as="geometry">
            <Array as="points">
              <mxPoint x="560" y="520" />
              <mxPoint x="240" y="520" />
            </Array>
          </mxGeometry>
        </mxCell>
      </root>
    </mxGraphModel>
  </diagram>
</mxfile> 